<svg xmlns="http://www.w3.org/2000/svg" version="1.1" xmlns:xlink="http://www.w3.org/1999/xlink" width="1000" height="1000"><g clip-path="url(#SvgjsClipPath1054)"><rect width="1000" height="1000" fill="#111113"></rect><g transform="matrix(10.9375,0,0,10.9375,150,150)"><svg xmlns="http://www.w3.org/2000/svg" version="1.1" xmlns:xlink="http://www.w3.org/1999/xlink" width="64" height="64"><svg width="64" height="64" viewBox="0 0 8 8" fill="none" xmlns="http://www.w3.org/2000/svg" shape-rendering="crispEdges">
  <!-- Dark background with light S - for dark contexts -->
  <!-- Colors: bg=#1c2024 (slate-12), S=#fcfcfd (slate-1) -->
  <rect width="8" height="8" fill="#1c2024"></rect>
  <g fill="#fcfcfd">
    <!-- Row 0 -->
    <rect x="2" y="0" width="1" height="1"></rect>
    <rect x="3" y="0" width="1" height="1"></rect>
    <rect x="4" y="0" width="1" height="1"></rect>
    <rect x="5" y="0" width="1" height="1"></rect>
    <!-- Row 1 -->
    <rect x="1" y="1" width="1" height="1"></rect>
    <rect x="2" y="1" width="1" height="1"></rect>
    <rect x="5" y="1" width="1" height="1"></rect>
    <rect x="6" y="1" width="1" height="1"></rect>
    <!-- Row 2 -->
    <rect x="1" y="2" width="1" height="1"></rect>
    <rect x="2" y="2" width="1" height="1"></rect>
    <!-- Row 3 -->
    <rect x="2" y="3" width="1" height="1"></rect>
    <rect x="3" y="3" width="1" height="1"></rect>
    <rect x="4" y="3" width="1" height="1"></rect>
    <!-- Row 4 -->
    <rect x="3" y="4" width="1" height="1"></rect>
    <rect x="4" y="4" width="1" height="1"></rect>
    <rect x="5" y="4" width="1" height="1"></rect>
    <!-- Row 5 -->
    <rect x="5" y="5" width="1" height="1"></rect>
    <rect x="6" y="5" width="1" height="1"></rect>
    <!-- Row 6 -->
    <rect x="1" y="6" width="1" height="1"></rect>
    <rect x="2" y="6" width="1" height="1"></rect>
    <rect x="5" y="6" width="1" height="1"></rect>
    <rect x="6" y="6" width="1" height="1"></rect>
    <!-- Row 7 -->
    <rect x="2" y="7" width="1" height="1"></rect>
    <rect x="3" y="7" width="1" height="1"></rect>
    <rect x="4" y="7" width="1" height="1"></rect>
    <rect x="5" y="7" width="1" height="1"></rect>
  </g>
</svg></svg></g></g><defs><clipPath id="SvgjsClipPath1054"><rect width="1000" height="1000" x="0" y="0" rx="350" ry="350"></rect></clipPath></defs></svg>